<svg xmlns="http://www.w3.org/2000/svg" version="1.1" xmlns:xlink="http://www.w3.org/1999/xlink" xmlns:svgjs="http://svgjs.dev/svgjs" width="1500" height="1500" viewBox="0 0 1500 1500"><rect width="1500" height="1500" fill="#faf99c"></rect><g transform="matrix(0.6666666666666666,0,0,0.6666666666666666,249.39393939393938,531.388751647906)"><svg viewBox="0 0 396 173" data-background-color="#faf99c" preserveAspectRatio="xMidYMid meet" height="655" width="1500" xmlns="http://www.w3.org/2000/svg" xmlns:xlink="http://www.w3.org/1999/xlink"><g id="tight-bounds" transform="matrix(1,0,0,1,0.2400000000000091,0.11010526315790514)"><svg viewBox="0 0 395.52 172.7797894736842" height="172.7797894736842" width="395.52"><g><svg viewBox="0 0 395.52 172.7797894736842" height="172.7797894736842" width="395.52"><g><svg viewBox="0 0 395.52 172.7797894736842" height="172.7797894736842" width="395.52"><g id="textblocktransform"><svg viewBox="0 0 395.52 172.7797894736842" height="172.7797894736842" width="395.52" id="textblock"><g><svg viewBox="0 0 395.52 172.7797894736842" height="172.7797894736842" width="395.52"><g transform="matrix(1,0,0,1,0,0)"><svg width="395.52" viewBox="1.15 -36.41 108.89 47.309999999999995" height="172.7797894736842" data-palette-color="#aba944"><g class="wordmark-text-0" data-fill-palette-color="primary" id="text-0"><path d="M1.95 0.15L1.95 0.15Q1.55 0.15 1.35-0.18 1.15-0.5 1.15-0.85L1.15-0.85Q1.2-1.6 1.53-1.68 1.85-1.75 2.3-1.75L2.3-1.75Q3.7-1.75 4.23-2.23 4.75-2.7 4.83-3.5 4.9-4.3 4.9-5.15L4.9-5.15 4.9-29.5Q4.9-30.4 4.83-31.18 4.75-31.95 4.25-32.43 3.75-32.9 2.35-32.9L2.35-32.9Q1.9-32.9 1.53-33.02 1.15-33.15 1.15-33.9L1.15-33.9Q1.15-34.65 1.95-34.8L1.95-34.8Q4.25-35.15 5.48-35.5 6.7-35.85 7.35-36.1 8-36.35 8.5-36.4L8.5-36.4Q8.9-36.45 9.18-36.25 9.45-36.05 9.45-35.45L9.45-35.45 9.45-12.6Q11.65-13.05 13.05-14.45L13.05-14.45 17.25-18.75Q17.55-19.1 17.93-19.5 18.3-19.9 18.38-20.25 18.45-20.6 17.95-20.8 17.45-21 16.05-20.9L16.05-20.9Q15.5-21 15.45-21.8L15.45-21.8Q15.45-22.2 15.68-22.5 15.9-22.8 16.25-22.8L16.25-22.8Q17.4-22.75 19.03-22.7 20.65-22.65 21.75-22.65L21.75-22.65Q22.6-22.65 23.43-22.7 24.25-22.75 25.1-22.8L25.1-22.8Q25.5-22.8 25.7-22.5 25.9-22.2 25.9-21.8L25.9-21.8Q25.85-21.15 25.63-21.03 25.4-20.9 25.05-20.9L25.05-20.9Q23.1-20.9 21.9-20.2 20.7-19.5 19.2-17.95L19.2-17.95 15-13.65Q15.6-12.85 16.6-11.7 17.6-10.55 18.73-9.28 19.85-8 20.85-6.88 21.85-5.75 22.45-5.05L22.45-5.05Q23.9-3.5 24.88-2.68 25.85-1.85 27.3-1.75L27.3-1.75Q27.7-1.7 28.05-1.63 28.4-1.55 28.4-0.85L28.4-0.85Q28.4-0.5 28.23-0.18 28.05 0.15 27.6 0.15L27.6 0.15Q26.9 0.1 26.45 0.08 26 0.05 25.45 0.03 24.9 0 23.88 0 22.85 0 20.95 0L20.95 0Q19.2-1.9 16.93-4.55 14.65-7.2 12.4-9.8L12.4-9.8Q11.9-10.35 11.13-10.83 10.35-11.3 9.45-11.2L9.45-11.2 9.45-5.15Q9.45-4.3 9.53-3.5 9.6-2.7 10.13-2.23 10.65-1.75 12-1.75L12-1.75Q12.5-1.75 12.83-1.68 13.15-1.6 13.2-0.85L13.2-0.85Q13.2-0.5 13-0.18 12.8 0.15 12.4 0.15L12.4 0.15Q10.95 0.05 9.7 0.03 8.45 0 7.15 0L7.15 0Q5.8 0 4.6 0.03 3.4 0.05 1.95 0.15ZM36.75 0.6L36.75 0.6Q33.7 0.6 31.87-1.15 30.05-2.9 30.05-5.35L30.05-5.35Q30.05-7.9 31.37-9.35 32.7-10.8 34.87-11.5 37.05-12.2 39.62-12.45 42.2-12.7 44.65-12.85L44.65-12.85 44.65-16.8Q44.65-19.15 43.47-20.48 42.3-21.8 39.5-21.8L39.5-21.8Q38.1-21.8 36.87-20.9 35.65-20 35.65-18.3L35.65-18.3Q35.65-17.5 36.05-16.95 36.45-16.4 36.85-16.1 37.25-15.8 37.25-15.7L37.25-15.7Q37.25-15.5 36.67-14.98 36.1-14.45 35.1-14.45L35.1-14.45Q33.55-14.45 32.7-15.6 31.85-16.75 31.85-18.15L31.85-18.15Q31.85-20.05 33.02-21.15 34.2-22.25 36.05-22.75 37.9-23.25 39.8-23.25L39.8-23.25Q42.05-23.25 44.17-22.7 46.3-22.15 47.67-20.6 49.05-19.05 49.05-15.95L49.05-15.95 49.05-4.3Q49.1-3.8 49.3-3.1 49.5-2.4 50.07-1.88 50.65-1.35 51.65-1.35L51.65-1.35Q52-1.35 52.2-1.23 52.4-1.1 52.4-0.55L52.4-0.55Q52.4-0.1 51.9 0.15 51.4 0.4 50.75 0.5 50.1 0.6 49.65 0.6L49.65 0.6Q47.8 0.6 46.35-0.48 44.9-1.55 44.65-3.45L44.65-3.45Q43.55-1.45 41.37-0.43 39.2 0.6 36.75 0.6ZM38.35-2.1L38.35-2.1Q40.05-2.1 41.47-2.95 42.9-3.8 43.77-5.28 44.65-6.75 44.65-8.55L44.65-8.55 44.65-11.4Q39.5-11.05 37.3-9.75 35.1-8.45 35.1-5.5L35.1-5.5Q35.1-2.1 38.35-2.1ZM65.95 0.6L65.95 0.6Q63.15 0.6 60.75-0.9 58.35-2.4 56.9-5.1 55.45-7.8 55.45-11.35L55.45-11.35Q55.45-14.45 56.92-17.18 58.4-19.9 61.02-21.58 63.65-23.25 67-23.25L67-23.25Q68.59-23.25 70.15-22.88 71.7-22.5 72.8-21.85L72.8-21.85 72.95-21.85 72.95-29.5Q72.95-30.4 72.87-31.18 72.8-31.95 72.3-32.43 71.8-32.9 70.4-32.9L70.4-32.9Q69.95-32.9 69.57-33.02 69.2-33.15 69.2-33.9L69.2-33.9Q69.2-34.65 70-34.8L70-34.8Q72.3-35.15 73.52-35.5 74.75-35.85 75.4-36.1 76.05-36.35 76.55-36.4L76.55-36.4Q76.95-36.45 77.22-36.25 77.5-36.05 77.5-35.45L77.5-35.45 77.5-4.6Q77.5-1.65 81.4-1.65L81.4-1.65Q81.95-1.65 82.09-1.38 82.25-1.1 82.25-0.85L82.25-0.85Q82.25-0.15 81.4 0L81.4 0 73.45 0.55Q73.09 0.55 73.05 0.25 73-0.05 73-0.45L73-0.45 73-2.45 72.84-2.45Q71.59-1.15 69.72-0.28 67.84 0.6 65.95 0.6ZM67.65-1.9L67.65-1.9Q69.55-1.9 70.8-2.68 72.05-3.45 72.95-4.4L72.95-4.4 72.95-17.6Q72.7-18.45 72.02-19.33 71.34-20.2 70.22-20.83 69.09-21.45 67.5-21.45L67.5-21.45Q64.59-21.45 62.6-18.73 60.6-16 60.6-11.1L60.6-11.1Q60.6-8.75 61.37-6.63 62.15-4.5 63.7-3.2 65.25-1.9 67.65-1.9ZM87.19 10.9L87.19 10.9Q85.74 10.9 84.47 10.25 83.19 9.6 82.44 8.53 81.69 7.45 81.69 6.2L81.69 6.2Q81.74 4.85 82.27 4.13 82.79 3.4 83.44 3.13 84.09 2.85 84.54 2.8 84.99 2.75 84.89 2.75L84.89 2.75Q85.84 2.75 86.34 3.13 86.84 3.5 86.84 3.75L86.84 3.75Q86.84 3.85 86.47 4.23 86.09 4.6 86.04 5.55L86.04 5.55Q85.99 6.45 86.59 7.3 87.19 8.15 88.44 8.15L88.44 8.15Q89.84 8.15 90.99 7.13 92.14 6.1 93.04 4.6 93.94 3.1 94.59 1.7L94.59 1.7Q94.94 0.6 94.54-0.6L94.54-0.6Q93.34-3.3 92.19-6.35 91.04-9.4 89.97-12.25 88.89-15.1 87.84-17.25L87.84-17.25Q87.04-19.1 86.29-19.88 85.54-20.65 84.04-20.85L84.04-20.85Q83.39-20.95 83.17-21.05 82.94-21.15 82.89-21.8L82.89-21.8Q82.84-22.65 83.37-22.73 83.89-22.8 84.64-22.85L84.64-22.85Q87.74-23 89.49-21.95 91.24-20.9 92.34-18.4L92.34-18.4Q93.04-16.85 93.89-14.55 94.74-12.25 95.69-9.9 96.64-7.55 97.54-5.65L97.54-5.65 97.69-5.65 102.59-18.75Q103.09-20.2 102.64-20.55 102.19-20.9 100.69-20.9L100.69-20.9Q100.24-20.9 99.94-20.98 99.64-21.05 99.59-21.8L99.59-21.8Q99.59-22.1 99.77-22.45 99.94-22.8 100.29-22.8L100.29-22.8Q101.74-22.75 102.79-22.7 103.84-22.65 105.14-22.65L105.14-22.65Q106.04-22.65 106.59-22.68 107.14-22.7 107.74-22.73 108.34-22.75 109.29-22.8L109.29-22.8Q109.69-22.8 109.87-22.45 110.04-22.1 110.04-21.8L110.04-21.8Q109.99-21.05 109.67-20.98 109.34-20.9 108.94-20.9L108.94-20.9Q107.29-20.9 106.32-20.3 105.34-19.7 104.64-17.95L104.64-17.95Q104.64-17.95 104.12-16.65 103.59-15.35 102.74-13.25 101.89-11.15 100.94-8.83 99.99-6.5 99.14-4.4 98.29-2.3 97.74-0.95 97.19 0.4 97.14 0.5L97.14 0.5Q96.49 2.05 95.57 3.88 94.64 5.7 93.42 7.28 92.19 8.85 90.64 9.88 89.09 10.9 87.19 10.9Z" fill="#aba944" data-fill-palette-color="primary"></path></g></svg></g></svg></g></svg></g></svg></g></svg></g><defs></defs></svg><rect width="395.52" height="172.7797894736842" fill="none" stroke="none" visibility="hidden"></rect></g></svg></g></svg>